<svg width="40" height="40" viewBox="0 0 40 40" fill="none" xmlns="http://www.w3.org/2000/svg">
<path d="M7.08333 0H32.9167C36.8333 0 40 3.24786 40 7.26496V32.735C40 36.7521 36.8333 40 32.9167 40H7.08333C3.16667 40 0 36.7521 0 32.735V7.26496C0 3.24786 3.16667 0 7.08333 0Z" fill="#00005B"/>
<path d="M16.0665 23.9316H9.8665L8.59983 27.9657C8.5665 28.1196 8.43317 28.2222 8.28317 28.2051H5.14983C4.9665 28.2051 4.9165 28.1025 4.9665 27.8974L10.3332 12.1196C10.3832 11.9486 10.4332 11.7948 10.4998 11.5897C10.5665 11.2307 10.5998 10.8546 10.5998 10.4786C10.5832 10.3931 10.6498 10.3076 10.7332 10.2905H10.7832H15.0498C15.1665 10.2905 15.2498 10.3418 15.2665 10.4273L21.3498 27.8632C21.3998 28.0512 21.3498 28.1367 21.1832 28.1367H17.6998C17.5832 28.1538 17.4665 28.0683 17.4332 27.9486L16.0665 23.8461V23.9316ZM10.8332 20.5298H15.0665C14.9665 20.1709 14.8332 19.7435 14.6832 19.2991C14.5332 18.8375 14.3832 18.3418 14.2332 17.829C14.0665 17.2991 13.9165 16.7863 13.7498 16.2563C13.5832 15.7264 13.4332 15.2307 13.2998 14.735C13.1665 14.2563 13.0498 13.8119 12.9332 13.4016H12.8998C12.7498 14.1367 12.5665 14.8717 12.3332 15.6068C12.0832 16.4273 11.8332 17.282 11.5665 18.1367C11.3498 19.0085 11.0832 19.8119 10.8332 20.5298V20.5298Z" fill="#9999FF"/>
<path d="M31.1662 22.3932H25.8829C25.9495 22.9232 26.1162 23.4531 26.3995 23.9146C26.6995 24.3762 27.1162 24.7351 27.6162 24.9403C28.2829 25.2309 29.0162 25.3847 29.7495 25.3676C30.3329 25.3505 30.9162 25.2992 31.4829 25.1796C31.9995 25.1112 32.4995 24.9744 32.9662 24.7864C33.0495 24.718 33.0995 24.7522 33.0995 24.9232V27.5385C33.0995 27.6069 33.0829 27.6753 33.0662 27.7437C33.0329 27.795 32.9995 27.8291 32.9495 27.8633C32.4162 28.1026 31.8662 28.2736 31.2829 28.3762C30.4995 28.53 29.7162 28.5984 28.9162 28.5813C27.6495 28.5813 26.5829 28.3762 25.7162 27.983C24.8995 27.624 24.1829 27.0599 23.6162 26.3591C23.0829 25.6924 22.6995 24.9403 22.4662 24.1197C22.2329 23.3163 22.1162 22.4787 22.1162 21.624C22.1162 20.7009 22.2495 19.795 22.5329 18.9061C22.7995 18.0514 23.2162 17.265 23.7829 16.5642C24.3329 15.8804 25.0162 15.3334 25.7995 14.9403C26.5829 14.5471 27.5162 14.4103 28.5829 14.4103C29.4662 14.3932 30.3495 14.5642 31.1662 14.9403C31.8495 15.248 32.4495 15.7095 32.9162 16.3078C33.3495 16.889 33.6995 17.5385 33.9162 18.2565C34.1329 18.9403 34.2329 19.6411 34.2329 20.342C34.2329 20.7522 34.2162 21.1112 34.1995 21.436C34.1662 21.7608 34.1495 22.0001 34.1329 22.1539C34.1162 22.2736 34.0162 22.3762 33.8995 22.3762C33.7995 22.3762 33.6162 22.3932 33.3495 22.4103C33.0829 22.4445 32.7662 22.4616 32.3829 22.4616C31.9995 22.4616 31.5995 22.3932 31.1662 22.3932V22.3932ZM25.8829 19.8975H29.3995C29.8329 19.8975 30.1495 19.8975 30.3495 19.8804C30.4829 19.8633 30.6162 19.8291 30.7329 19.7437V19.5727C30.7329 19.3505 30.6995 19.1454 30.6329 18.9403C30.3329 17.983 29.4495 17.3334 28.4662 17.3676C27.5495 17.3163 26.6829 17.8121 26.2495 18.6668C26.0495 19.0599 25.9329 19.4702 25.8829 19.8975Z" fill="#9999FF"/>
</svg>
