<svg width="77" height="77" viewBox="0 0 77 77" fill="none" xmlns="http://www.w3.org/2000/svg">
<circle cx="38.5" cy="38.5" r="38.5" fill="white"/>
<circle cx="38.5" cy="38.5" r="31.2812" stroke="#092C86" stroke-width="2"/>
<path d="M29.5592 48H19.6952V30.864H29.5592V33.84H23.3192V37.608H29.1272V40.584H23.3192V45H29.5592V48ZM43.2288 43.248C43.2288 44.256 42.9808 45.136 42.4848 45.888C41.9888 46.64 41.2688 47.224 40.3248 47.64C39.3968 48.04 38.2608 48.24 36.9168 48.24C36.3248 48.24 35.7408 48.2 35.1648 48.12C34.6048 48.04 34.0608 47.928 33.5328 47.784C33.0208 47.624 32.5328 47.432 32.0688 47.208V43.824C32.8848 44.176 33.7248 44.504 34.5888 44.808C35.4688 45.096 36.3408 45.24 37.2048 45.24C37.7968 45.24 38.2688 45.16 38.6208 45C38.9888 44.84 39.2528 44.624 39.4128 44.352C39.5888 44.08 39.6768 43.768 39.6768 43.416C39.6768 42.984 39.5248 42.616 39.2208 42.312C38.9328 42.008 38.5408 41.728 38.0448 41.472C37.5488 41.2 36.9808 40.912 36.3408 40.608C35.9408 40.416 35.5088 40.192 35.0448 39.936C34.5808 39.664 34.1328 39.336 33.7008 38.952C33.2848 38.552 32.9408 38.072 32.6688 37.512C32.3968 36.952 32.2608 36.28 32.2608 35.496C32.2608 34.472 32.4928 33.6 32.9568 32.88C33.4368 32.144 34.1088 31.584 34.9728 31.2C35.8528 30.816 36.8848 30.624 38.0688 30.624C38.9648 30.624 39.8128 30.728 40.6128 30.936C41.4288 31.144 42.2768 31.44 43.1568 31.824L41.9808 34.656C41.1968 34.336 40.4928 34.088 39.8688 33.912C39.2448 33.736 38.6048 33.648 37.9488 33.648C37.5008 33.648 37.1168 33.72 36.7968 33.864C36.4768 34.008 36.2288 34.208 36.0528 34.464C35.8928 34.72 35.8128 35.024 35.8128 35.376C35.8128 35.776 35.9328 36.12 36.1728 36.408C36.4128 36.68 36.7728 36.944 37.2528 37.2C37.7328 37.456 38.3328 37.76 39.0528 38.112C39.9328 38.528 40.6768 38.96 41.2848 39.408C41.9088 39.856 42.3888 40.384 42.7248 40.992C43.0608 41.6 43.2288 42.352 43.2288 43.248ZM53.6156 33.648C52.9276 33.648 52.3116 33.784 51.7676 34.056C51.2396 34.328 50.7916 34.72 50.4236 35.232C50.0556 35.728 49.7756 36.336 49.5836 37.056C49.4076 37.776 49.3196 38.584 49.3196 39.48C49.3196 40.696 49.4636 41.736 49.7516 42.6C50.0556 43.448 50.5276 44.096 51.1676 44.544C51.8076 44.992 52.6236 45.216 53.6156 45.216C54.3196 45.216 55.0156 45.136 55.7036 44.976C56.4076 44.816 57.1676 44.592 57.9836 44.304V47.352C57.2316 47.656 56.4876 47.88 55.7516 48.024C55.0156 48.168 54.1916 48.24 53.2796 48.24C51.5196 48.24 50.0636 47.88 48.9116 47.16C47.7756 46.424 46.9356 45.4 46.3916 44.088C45.8476 42.76 45.5756 41.216 45.5756 39.456C45.5756 38.16 45.7516 36.976 46.1036 35.904C46.4556 34.816 46.9676 33.88 47.6396 33.096C48.3276 32.312 49.1676 31.704 50.1596 31.272C51.1676 30.84 52.3196 30.624 53.6156 30.624C54.4636 30.624 55.3116 30.736 56.1596 30.96C57.0236 31.168 57.8476 31.456 58.6316 31.824L57.4556 34.776C56.8156 34.472 56.1676 34.208 55.5116 33.984C54.8716 33.76 54.2396 33.648 53.6156 33.648Z" fill="#092C86"/>
</svg>
