<svg width="40" height="40" viewBox="0 0 40 40" fill="none" xmlns="http://www.w3.org/2000/svg">
<path d="M2 0L5.20875 36.0012L19.6117 40L34.051 36.0012L37.2598 0H2ZM29.8821 16.299L29.7727 17.4901L28.7396 29.1097L28.6788 29.8511L19.6481 32.3549H19.6238L10.581 29.839L9.96111 22.911H12.003H14.3974L14.7135 26.4357L19.636 27.7606L24.5585 26.4357L25.069 20.711H19.6481H19.6238H9.75448L9.35339 16.299H19.6238H19.636H25.4458L25.8469 11.7776H19.636H19.6238H8.96445L8.56335 7.35339H19.6238H19.636H30.6843L29.8821 16.299Z" fill="white"/>
<path d="M37.27 0L34.0568 35.9958L19.6134 40L5.20978 36.0015L2 0H37.27Z" fill="#264DE4"/>
<path d="M31.3067 33.7039L34.0526 2.94385H19.6357V36.9396L31.3067 33.7039Z" fill="#2965F1"/>
<path d="M9.3584 16.2959L9.75414 20.7113H19.635V16.2959H9.3584Z" fill="#EBEBEB"/>
<path d="M19.6353 7.35913H19.62H8.56348L8.96486 11.7746H19.6353V7.35913Z" fill="#EBEBEB"/>
<path d="M19.6348 32.3573V27.7634L19.6154 27.7685L14.6979 26.4407L14.3836 22.9192H11.9941H9.95117L10.5698 29.852L19.6145 32.3629L19.6348 32.3573Z" fill="#EBEBEB"/>
<path d="M25.0572 20.7115L24.5447 26.4379L19.6201 27.7671V32.3608L28.672 29.8521L28.7384 29.1061L29.776 17.4817L29.8837 16.2961L30.6808 7.35913H19.6201V11.7746H25.8419L25.4401 16.2961H19.6201V20.7115H25.0572Z" fill="white"/>
</svg>
