<?xml version="1.0" encoding="utf-8"?>
<!-- Generator: Adobe Illustrator 27.0.0, SVG Export Plug-In . SVG Version: 6.00 Build 0)  -->
<svg version="1.1"
	 id="svg3476" xmlns:sodipodi="http://sodipodi.sourceforge.net/DTD/sodipodi-0.dtd" xmlns:inkscape="http://www.inkscape.org/namespaces/inkscape" xmlns:svg="http://www.w3.org/2000/svg" xmlns:rdf="http://www.w3.org/1999/02/22-rdf-syntax-ns#" xmlns:cc="http://creativecommons.org/ns#" xmlns:dc="http://purl.org/dc/elements/1.1/" sodipodi:docname="CSS3.svg"
	 xmlns="http://www.w3.org/2000/svg" xmlns:xlink="http://www.w3.org/1999/xlink" x="0px" y="0px" viewBox="0 0 290.2 409.6"
	 style="enable-background:new 0 0 290.2 409.6;" xml:space="preserve">
<style type="text/css">
	.st0{fill:#FFFFFF;}
</style>
<sodipodi:namedview  bordercolor="#666666" borderopacity="1.0" fit-margin-bottom="0" fit-margin-left="0" fit-margin-right="0" fit-margin-top="0" id="base" inkscape:current-layer="layer1" inkscape:cx="181.367" inkscape:cy="256" inkscape:document-units="px" inkscape:pageopacity="0.0" inkscape:pageshadow="2" inkscape:window-height="704" inkscape:window-maximized="1" inkscape:window-width="1366" inkscape:window-x="0" inkscape:window-y="27" inkscape:zoom="0.35" pagecolor="#ffffff" showgrid="false">
	</sodipodi:namedview>
<path class="st0" d="M0,80.5l26.4,296.2l118.5,32.9l118.8-32.9l26.4-296.2H0z M229.4,214.6l-0.9,9.8L220,320l-0.5,6.1l-74.3,20.6v0
	l-0.2,0l-74.4-20.7l-5.1-57h16.8h19.7l2.6,29l40.5,10.9l0,0v0l40.5-10.9l4.2-47.1h-44.6H145H63.8l-3.3-36.3H145h0.1h47.8l3.3-37.2
	h-51.1H145H57.3L54,141h91h0.1H236L229.4,214.6z"/>
</svg>
