<svg width="40" height="40" viewBox="0 0 40 40" fill="none" xmlns="http://www.w3.org/2000/svg">
<path d="M2 0L5.20856 36.0136L19.6082 40L34.0661 35.9942L37.2747 0H2ZM30.2742 11.7744H19.6373H19.6179H13.3952L13.8036 16.2956H19.6179H19.6373H29.8755L28.6602 29.8493L19.6373 32.3481V32.3772L10.5756 29.8493L9.95333 22.9169H14.387L14.6981 26.4463L19.6276 27.7686L24.5474 26.4463L25.0627 20.7098H19.6179V20.7H9.75887L8.55323 7.36023H19.6179H19.6373H30.6825L30.2742 11.7744Z" fill="white"/>
<path d="M5.20856 36.0136L2 0H37.2747L34.0661 35.9942L19.6082 40" fill="#E44D26"/>
<path d="M19.6367 36.9373V2.95581H34.0558L31.3042 33.6802" fill="#F16529"/>
<path d="M8.55371 7.36011H19.6378V11.7743H13.3957L13.8041 16.2955H19.6378V20.6999H9.75935M9.95381 22.9167H14.3874L14.6986 26.4462L19.6378 27.7685V32.3771L10.5761 29.8492" fill="#EBEBEB"/>
<path d="M30.6828 7.36011H19.6182V11.7743H30.2745M29.8758 16.2955H19.6182V20.7096H25.063L24.5477 26.4462L19.6182 27.7685V32.3577L28.6605 29.8492" fill="white"/>
</svg>
