<svg width="40" height="40" viewBox="0 0 40 40" fill="none" xmlns="http://www.w3.org/2000/svg">
<path d="M7.08333 0H32.9167C36.8333 0 40 3.24786 40 7.26496V32.735C40 36.7521 36.8333 40 32.9167 40H7.08333C3.16667 40 0 36.7521 0 32.735V7.26496C0 3.24786 3.16667 0 7.08333 0Z" fill="#330000"/>
<path d="M19.0329 23.748H12.7716L11.4924 27.6819C11.4587 27.8326 11.3241 27.933 11.1726 27.9163H8.00827C7.82313 27.9163 7.77263 27.8159 7.82313 27.615L13.2429 12.0969C13.2934 11.9295 13.3439 11.7454 13.4112 11.5445C13.4785 11.193 13.5122 10.8247 13.5122 10.4564C13.4954 10.3727 13.5627 10.289 13.6468 10.2722H18.0062C18.1409 10.2722 18.2082 10.3225 18.225 10.4062L24.3685 27.6485C24.419 27.8326 24.3685 27.9163 24.2002 27.9163H20.6824C20.5646 27.933 20.4468 27.8493 20.4131 27.7322L19.0329 23.748ZM13.7478 20.3498H18.023C17.922 19.9982 17.7874 19.5797 17.6359 19.1445C17.4844 18.6925 17.3329 18.207 17.1815 17.7048C17.0131 17.1859 16.8617 16.6837 16.6933 16.1648C16.525 15.6458 16.3735 15.1604 16.2389 14.6749C16.1042 14.2062 15.9864 13.7709 15.8686 13.3692H15.8349C15.6835 14.089 15.4983 14.8088 15.2627 15.5286C15.0102 16.3322 14.7577 17.1692 14.4884 18.0062C14.2528 18.8599 14.0003 19.6467 13.7478 20.3498ZM28.122 13.2018C27.5665 13.2185 27.0279 13.0009 26.624 12.6159C26.2368 12.1974 26.0349 11.6449 26.0517 11.0758C26.0349 10.5066 26.2537 9.97093 26.6576 9.5859C27.0616 9.20088 27.6002 9 28.1556 9C28.8121 9 29.317 9.20088 29.6873 9.5859C30.0576 9.98767 30.2596 10.5233 30.2427 11.0758C30.2596 11.6449 30.0576 12.1974 29.6536 12.6159C29.2665 13.0176 28.6942 13.2352 28.122 13.2018ZM26.2368 27.7322V14.8423C26.2368 14.6749 26.3042 14.6079 26.4556 14.6079H29.7883C29.9398 14.6079 30.0071 14.6916 30.0071 14.8423V27.7322C30.0071 27.9163 29.9398 28 29.7883 28H26.4893C26.321 28 26.2368 27.8996 26.2368 27.7322V27.7322Z" fill="#FF9A00"/>
</svg>
