<svg width="40" height="40" viewBox="0 0 40 40" fill="none" xmlns="http://www.w3.org/2000/svg">
<path d="M12.2137 38.0142L5.15227 36.0373L3.58504 18.4684C2.72128 8.79785 2.0089 0.694567 2.0089 0.445235L2 0H19.569H37.1469V0.267141C37.1469 0.641139 34.0569 35.5031 33.9946 35.8058C33.9501 36.0195 33.0952 36.2867 26.7907 38.032C22.8548 39.1184 19.5512 40.0088 19.4532 39.9999C19.3553 39.9999 16.1051 39.1006 12.2137 38.0142ZM24.0748 31.1843C26.5147 30.5075 28.5449 29.8931 28.5894 29.8219C28.634 29.7506 28.9278 26.7675 29.2395 23.1879C29.5512 19.6082 29.8361 16.5895 29.8717 16.4737C29.9252 16.2778 29.5066 16.2689 22.3472 16.2689H14.7604L15.081 12.8584C15.2591 10.9795 15.4105 9.43899 15.4105 9.43008C15.4194 9.42118 16.5325 9.38556 17.886 9.34994C20.1122 9.28761 24.6892 9.4657 24.8406 9.61708C24.894 9.67051 25.2769 13.3749 25.2769 13.8735C25.2769 14.1229 25.3125 14.1229 27.5743 14.1229H29.8717L29.8183 13.6153C29.7916 13.3392 29.5957 11.1843 29.382 8.83347L28.9991 4.55921L20.13 4.53249C13.0685 4.50578 11.2609 4.53249 11.252 4.64826C11.252 4.7284 11.1986 5.25378 11.1362 5.80587C10.9848 7.15048 9.82724 20.1246 9.82724 20.4808V20.7658H17.3784H24.9296L24.8584 21.211C24.8228 21.4603 24.707 22.6981 24.6001 23.9715C24.4933 25.2448 24.3686 26.3223 24.333 26.3579C24.2261 26.4648 19.7827 27.6491 19.5066 27.6491C19.382 27.6491 18.2333 27.3642 16.9599 27.0169L14.6447 26.3846L14.5556 25.3873C14.5111 24.8352 14.4399 24.0605 14.3953 23.6509L14.3241 22.9118H12.0801H9.83614L9.84504 23.357C9.85395 24.1941 10.3971 29.7951 10.4684 29.8753C10.5574 29.9643 19.1861 32.3953 19.4532 32.4042C19.5512 32.4131 21.6349 31.861 24.0748 31.1843Z" fill="white"/>
<path d="M2.11816 0L2.12372 0.444277C2.12678 0.68863 2.83471 8.77898 3.69691 18.4228L5.26455 35.957L12.3103 37.9296C16.1855 39.0146 19.4361 39.9078 19.5338 39.9147C19.6316 39.9215 22.9251 39.0373 26.8528 37.9498C33.15 36.2062 34.0001 35.9435 34.0452 35.7277C34.108 35.427 37.1918 0.638768 37.1886 0.266566L37.1864 0H19.6522H2.11816Z" fill="white"/>
<path d="M12.3665 38.0478L5.25803 36.0608L5.16514 35.5351C5.08257 35.0677 2 0.638483 2 0.183577C2 0.0189358 3.79982 0.000244141 19.6526 0.000244141C36.3862 0.000244141 37.3052 0.0110373 37.3039 0.207573C37.2983 1.05644 34.1076 35.9416 34.0292 36.011C33.9301 36.0987 20.1716 39.9318 19.7119 39.9997C19.5815 40.019 16.2761 39.1406 12.3665 38.0478ZM24.1349 31.0271C26.5241 30.3681 28.5134 29.795 28.5555 29.7535C28.5977 29.7119 28.8773 26.879 29.1768 23.4581C29.4764 20.0371 29.7517 17.0116 29.7887 16.7347L29.8559 16.2312H24.695H19.5341V18.4229V20.6147H22.3205H25.1069L25.0515 20.8813C25.021 21.0279 24.9025 22.2878 24.7882 23.6811C24.667 25.1574 24.5234 26.2712 24.4439 26.3507C24.3688 26.4257 23.2335 26.7734 21.9208 27.1232L19.5341 27.7594V29.9923C19.5341 31.5163 19.5749 32.2252 19.6625 32.2252C19.7331 32.2252 21.7456 31.686 24.1349 31.0271ZM29.788 13.4767C29.7097 12.8961 29.0121 5.10977 29.0121 4.81618C29.0121 4.63786 28.6019 4.62073 24.3323 4.62073H19.6526V6.91264V9.20455L21.7555 9.28561C22.9121 9.33018 24.1293 9.39803 24.4604 9.43637L25.0625 9.50608L25.2086 11.2988C25.289 12.2849 25.3848 13.2915 25.4214 13.5359L25.4881 13.9802H27.672H29.8559L29.788 13.4767Z" fill="#EAEBEC"/>
<path d="M12.3103 37.9298L5.26458 35.9571L3.69694 18.4229C2.83473 8.77916 2.12679 0.688874 2.12373 0.444521L2.11816 0.000244141H19.6523H37.1864L37.1887 0.266811C37.1919 0.639012 34.108 35.4272 34.0452 35.728C34.0001 35.9438 33.15 36.2064 26.8528 37.9501C22.9251 39.0376 19.6316 39.9218 19.5338 39.9149C19.4361 39.9081 16.1855 39.0148 12.3103 37.9298ZM24.1399 31.1108C26.5755 30.4337 28.6028 29.8237 28.6451 29.7554C28.6873 29.687 28.9783 26.7094 29.2917 23.1385C29.6051 19.5675 29.8871 16.5525 29.9185 16.4385C29.9724 16.2426 29.5579 16.2312 22.409 16.2312H14.8424L15.1646 12.825C15.3418 10.9517 15.491 9.41407 15.4962 9.40814C15.5015 9.40222 16.612 9.36679 17.9641 9.32943C20.1811 9.26815 24.753 9.44502 24.906 9.59797C24.9631 9.65511 25.3391 13.3433 25.3391 13.8467C25.3391 14.095 25.3725 14.0986 27.6347 14.0986H29.9304L29.8763 13.5951C29.8466 13.3182 29.6521 11.1723 29.4442 8.82655L29.0661 4.56149L20.2126 4.53112C13.1692 4.50696 11.3589 4.53118 11.3582 4.64959C11.3575 4.73146 11.306 5.2516 11.2434 5.80547C11.092 7.14572 9.93744 20.0954 9.93744 20.4531V20.7332H17.471H25.0045L24.9373 21.1775C24.9004 21.4218 24.7833 22.6613 24.6771 23.932C24.5709 25.2026 24.4498 26.275 24.408 26.3152C24.2976 26.4211 19.8658 27.6051 19.5894 27.6024C19.4611 27.6012 18.3165 27.3156 17.0459 26.9678L14.7356 26.3354L14.6509 25.341C14.6043 24.7941 14.5334 24.0134 14.4934 23.6062L14.4206 22.8657H12.179H9.93744L9.94241 23.31C9.95169 24.1408 10.4905 29.7373 10.5687 29.8156C10.6592 29.9061 19.2687 32.3262 19.5338 32.3357C19.6316 32.3392 21.7043 31.788 24.1399 31.1108Z" fill="#F0BE25"/>
<path d="M12.3103 37.9298L5.26458 35.9571L3.69694 18.4229C2.83473 8.77916 2.12679 0.688874 2.12373 0.444521L2.11816 0.000244141H19.6523H37.1864L37.1887 0.266811C37.1919 0.639012 34.108 35.4272 34.0452 35.728C34.0001 35.9438 33.15 36.2064 26.8528 37.9501C22.9251 39.0376 19.6316 39.9218 19.5338 39.9149C19.4361 39.9081 16.1855 39.0148 12.3103 37.9298ZM25.4498 35.2907C28.5492 34.4355 31.1433 33.6758 31.2144 33.6024C31.3251 33.4883 34.002 4.15093 33.9912 3.16942L33.9877 2.84362H26.82H19.6523V3.67294V4.50225H15.5057C12.2679 4.50225 11.3589 4.53471 11.3582 4.65035C11.3575 4.7318 11.306 5.2516 11.2434 5.80547C11.092 7.14572 9.93744 20.0954 9.93744 20.4531V20.7332H14.7949H19.6523V24.1689C19.6523 26.8397 19.6193 27.6042 19.5042 27.6024C19.4228 27.6012 18.3165 27.3156 17.0459 26.9678L14.7356 26.3354L14.6509 25.341C14.6043 24.7941 14.5334 24.0134 14.4934 23.6062L14.4206 22.8657H12.179H9.93744L9.94241 23.31C9.9566 24.5808 10.5063 29.7679 10.6353 29.8476C10.7136 29.896 12.7745 30.4882 15.215 31.1636L19.6523 32.3914V34.6185C19.6523 35.8434 19.6888 36.8456 19.7334 36.8456C19.778 36.8456 22.3504 36.1459 25.4498 35.2907ZM15.1521 12.8569C15.3224 11.001 15.485 9.46159 15.5134 9.43592C15.5417 9.41025 16.4846 9.3638 17.6086 9.33271L19.6523 9.27616V12.7537V16.2312H17.2474H14.8424L15.1521 12.8569Z" fill="#E4A126"/>
</svg>
