<svg width="40" height="40" viewBox="0 0 40 40" fill="none" xmlns="http://www.w3.org/2000/svg">
<path d="M7.08333 0H32.9167C36.8333 0 40 3.24786 40 7.26496V32.735C40 36.7521 36.8333 40 32.9167 40H7.08333C3.16667 40 0 36.7521 0 32.735V7.26496C0 3.24786 3.16667 0 7.08333 0Z" fill="#00005B"/>
<path d="M9.5 28.0344V10.4276C9.5 10.3079 9.55 10.2395 9.66667 10.2395C9.95 10.2395 10.2167 10.2395 10.6 10.2224C11 10.2053 11.4167 10.2053 11.8667 10.1882C12.3167 10.1712 12.8 10.1712 13.3167 10.1541C13.8333 10.137 14.3333 10.137 14.8333 10.137C16.2 10.137 17.3333 10.3079 18.2667 10.6669C19.1 10.9575 19.8667 11.4361 20.5 12.0686C21.0333 12.6156 21.45 13.2823 21.7167 14.0173C21.9667 14.7353 22.1 15.4703 22.1 16.2395C22.1 17.7096 21.7667 18.9233 21.1 19.8806C20.4333 20.8378 19.5 21.5558 18.4167 21.966C17.2833 22.3934 16.0333 22.5472 14.6667 22.5472C14.2667 22.5472 14 22.5472 13.8333 22.5301C13.6667 22.513 13.4333 22.513 13.1167 22.513V28.0002C13.1333 28.1199 13.05 28.2224 12.9333 28.2395H12.8667H9.7C9.56667 28.2395 9.5 28.1711 9.5 28.0173V28.0344ZM13.1333 13.5558V19.2994C13.3667 19.3165 13.5833 19.3335 13.7833 19.3335H14.6667C15.3167 19.3335 15.9667 19.231 16.5833 19.0259C17.1167 18.872 17.5833 18.5472 17.95 18.1199C18.3 17.6925 18.4667 17.1113 18.4667 16.3592C18.4833 15.8293 18.35 15.2994 18.0833 14.8378C17.8 14.3934 17.4 14.0515 16.9167 13.8635C16.3 13.607 15.6333 13.5045 14.95 13.5216C14.5167 13.5216 14.1333 13.5216 13.8167 13.5387C13.4833 13.5216 13.25 13.5387 13.1333 13.5558V13.5558Z" fill="#9999FF"/>
<path d="M24.4999 14.5643H27.4166C27.5833 14.5643 27.7166 14.6839 27.7666 14.8378C27.8166 14.9745 27.8499 15.1113 27.8666 15.2651C27.8999 15.4361 27.9333 15.6241 27.9499 15.795C27.9666 15.9831 27.9833 16.1882 27.9833 16.4104C28.4833 15.8121 29.0833 15.3164 29.7666 14.9403C30.5333 14.4959 31.4166 14.2737 32.2999 14.2737C32.4166 14.2566 32.5166 14.342 32.5333 14.4617V14.5301V17.8634C32.5333 18.0002 32.4499 18.0514 32.2666 18.0514C31.6666 18.0343 31.0499 18.0856 30.4666 18.2224C29.9833 18.3249 29.5166 18.4788 29.0666 18.6839C28.7499 18.8378 28.4499 19.0429 28.2166 19.3164V28.0343C28.2166 28.2053 28.1499 28.2737 27.9999 28.2737H24.7166C24.5833 28.2908 24.4666 28.2053 24.4499 28.0685V28.0002V18.5301C24.4499 18.1198 24.4499 17.6925 24.4333 17.248C24.4166 16.8036 24.4166 16.3591 24.3999 15.9147C24.3999 15.5215 24.3666 15.1455 24.3333 14.7523C24.3166 14.6668 24.3666 14.5814 24.4499 14.5643C24.4499 14.5472 24.4833 14.5472 24.4999 14.5643V14.5643Z" fill="#9999FF"/>
</svg>
