<?xml version="1.0" encoding="utf-8"?>
<!-- Generator: Adobe Illustrator 27.0.0, SVG Export Plug-In . SVG Version: 6.00 Build 0)  -->
<svg version="1.1" id="Layer_1" xmlns="http://www.w3.org/2000/svg" xmlns:xlink="http://www.w3.org/1999/xlink" x="0px" y="0px"
	 viewBox="0 0 24 24" style="enable-background:new 0 0 24 24;" xml:space="preserve">
<style type="text/css">
	.st0{fill:#FFFFFF;}
</style>
<path class="st0" d="M12.9,4.3l3.8,2.2c0.1,0.1,0.1,0.3,0,0.4l-4.5,2.6c-0.1,0.1-0.3,0.1-0.4,0L7.3,6.9c-0.1-0.1-0.1-0.3,0-0.4
	l3.8-2.2V0L1.4,5.6v11.2l3.7-2.1v-4.4c0-0.2,0.2-0.3,0.3-0.2l4.5,2.6c0.1,0.1,0.2,0.2,0.2,0.4v5.2c0,0.2-0.2,0.3-0.3,0.2L6,16.3
	l-3.7,2.1L12,24l9.7-5.6L18,16.3l-3.8,2.2c-0.1,0.1-0.3,0-0.3-0.2v-5.2c0-0.2,0.1-0.3,0.2-0.4l4.5-2.6c0.1-0.1,0.3,0,0.3,0.2v4.4
	l3.7,2.1V5.6L12.9,0V4.3z"/>
</svg>
